<?xml version="1.0" standalone="no"?>
<!DOCTYPE svg PUBLIC "-//W3C//DTD SVG 20010904//EN"
 "http://www.w3.org/TR/2001/REC-SVG-20010904/DTD/svg10.dtd">
<svg version="1.0" xmlns="http://www.w3.org/2000/svg"
 width="500.000000pt" height="500.000000pt" viewBox="0 0 500.000000 500.000000"
 preserveAspectRatio="xMidYMid meet">

<g transform="translate(0.000000,500.000000) scale(0.100000,-0.100000)"
fill="#000000" stroke="none">
<path d="M2534 3347 c-2 -7 -3 -56 -2 -108 l3 -94 130 0 130 0 0 105 0 105
-128 3 c-100 2 -129 0 -133 -11z"/>
<path d="M2854 3347 c-3 -8 -3 -56 -2 -108 l3 -94 133 -3 132 -3 0 111 0 110
-130 0 c-99 0 -132 -3 -136 -13z"/>
<path d="M1884 3077 c-2 -7 -3 -56 -2 -108 l3 -94 130 0 130 0 0 105 0 105
-128 3 c-100 2 -129 0 -133 -11z"/>
<path d="M2204 3077 c-2 -7 -3 -56 -2 -108 l3 -94 135 0 135 0 0 105 0 105
-133 3 c-104 2 -134 0 -138 -11z"/>
<path d="M2534 3077 c-2 -7 -3 -56 -2 -108 l3 -94 130 0 130 0 0 105 0 105
-128 3 c-100 2 -129 0 -133 -11z"/>
<path d="M2854 3077 c-3 -8 -3 -56 -2 -108 l3 -94 133 -3 132 -3 0 111 0 110
-130 0 c-99 0 -132 -3 -136 -13z"/>
<path d="M1887 2814 c-10 -11 -8 -202 2 -208 5 -3 66 21 136 54 l126 60 -3 47
-3 48 -126 3 c-69 1 -128 -1 -132 -4z"/>
<path d="M2207 2813 c-11 -10 -8 -63 3 -63 15 0 140 58 140 64 0 8 -135 7
-143 -1z"/>
<path d="M2205 2684 c-576 -265 -523 -237 -546 -288 -22 -50 -21 -64 13 -201
24 -98 76 -226 131 -322 35 -62 45 -73 67 -73 70 0 205 63 254 119 31 35 77
28 133 -21 78 -68 143 -92 243 -93 75 0 93 4 151 31 37 18 84 48 106 68 55 49
88 48 150 -6 59 -51 131 -85 199 -94 l52 -6 40 69 c78 134 162 377 162 470 0
38 -19 80 -46 104 -16 14 -811 381 -817 378 -1 -1 -132 -61 -292 -135z m320
-329 l0 -380 -22 -3 -23 -3 0 386 0 386 23 -3 22 -3 0 -380z"/>
<path d="M2650 2816 c0 -3 30 -19 67 -36 70 -32 87 -30 81 11 -3 22 -8 24 -75
27 -40 2 -73 0 -73 -2z"/>
<path d="M2854 2806 c-3 -8 -4 -31 -2 -52 l3 -38 125 -57 c69 -32 128 -58 133
-58 4 -1 7 49 7 109 l0 110 -130 0 c-103 0 -132 -3 -136 -14z"/>
<path d="M1506 1874 c-15 -39 142 -140 252 -163 134 -28 290 9 389 93 l31 26
37 -30 c157 -125 383 -131 556 -14 28 19 53 34 56 34 3 0 29 -16 58 -35 151
-100 326 -111 482 -31 59 30 133 92 133 112 0 29 -30 26 -68 -8 -91 -82 -183
-113 -310 -105 -94 6 -175 39 -249 101 -22 20 -45 36 -50 36 -5 0 -20 -11 -33
-25 -107 -114 -317 -149 -463 -77 -34 17 -81 47 -104 66 -22 20 -45 36 -50 36
-5 0 -20 -11 -33 -25 -74 -78 -191 -120 -316 -112 -95 5 -161 31 -241 95 -58
46 -68 50 -77 26z"/>
</g>
</svg>
